HIERARCHY
ROOT Hips
{
	OFFSET 0.000000 0.000000 0.000000
	CHANNELS 6 Xposition Yposition Zposition Zrotation Yrotation Xrotation 
	JOINT LowerBack
	{
		OFFSET 0.000000 0.000000 0.000000
		CHANNELS 3 Zrotation Yrotation Xrotation
		JOINT Spine
		{
			OFFSET 0.028270 2.035590 -0.193380
			CHANNELS 3 Zrotation Yrotation Xrotation
			JOINT Spine1
			{
				OFFSET 0.056720 2.048850 -0.042750
				CHANNELS 3 Zrotation Yrotation Xrotation
				JOINT Neck
				{
					OFFSET 0.000000 0.000000 0.000000
					CHANNELS 3 Zrotation Yrotation Xrotation
					JOINT Neck1
					{
						OFFSET -0.054170 1.746240 0.172020
						CHANNELS 3 Zrotation Yrotation Xrotation
						JOINT Head
						{
							OFFSET 0.104070 1.761360 -0.123970
							CHANNELS 3 Zrotation Yrotation Xrotation
							End Site
							{
								OFFSET 0.000000 0.000000 0.000000
							}
						}
					}
				}
				JOINT LeftShoulder
				{
					OFFSET 0.000000 0.000000 0.000000
					CHANNELS 3 Zrotation Yrotation Xrotation
					JOINT LeftArm
					{
						OFFSET 3.362410 1.200890 -0.311210
						CHANNELS 3 Zrotation Yrotation Xrotation
						JOINT LeftForeArm
						{
							OFFSET 4.983000 -0.000000 -0.000000
							CHANNELS 3 Zrotation Yrotation Xrotation
							JOINT LeftHand
							{
								OFFSET 3.483560 -0.000000 -0.000000
								CHANNELS 3 Zrotation Yrotation Xrotation
								JOINT LeftFingerBase
								{
									OFFSET 0.000000 0.000000 0.000000
									CHANNELS 3 Zrotation Yrotation Xrotation
									JOINT LeftHandIndex1
									{
										OFFSET 0.715260 -0.000000 -0.000000
										CHANNELS 3 Zrotation Yrotation Xrotation
										End Site
										{
											OFFSET 0.000000 0.000000 0.000000
										}
									}
								}
								JOINT LThumb
								{
									OFFSET 0.000000 0.000000 0.000000
									CHANNELS 3 Zrotation Yrotation Xrotation
									End Site
									{
										OFFSET 0.000000 0.000000 0.000000
									}
								}
							}
						}
					}
				}
				JOINT RightShoulder
				{
					OFFSET 0.000000 0.000000 0.000000
					CHANNELS 3 Zrotation Yrotation Xrotation
					JOINT RightArm
					{
						OFFSET -3.136600 1.374050 -0.404650
						CHANNELS 3 Zrotation Yrotation Xrotation
						JOINT RightForeArm
						{
							OFFSET -5.241900 -0.000000 -0.000000
							CHANNELS 3 Zrotation Yrotation Xrotation
							JOINT RightHand
							{
								OFFSET -3.444170 -0.000000 -0.000000
								CHANNELS 3 Zrotation Yrotation Xrotation
								JOINT RightFingerBase
								{
									OFFSET 0.000000 0.000000 0.000000
									CHANNELS 3 Zrotation Yrotation Xrotation
									JOINT RightHandIndex1
									{
										OFFSET -0.622530 -0.000000 -0.000000
										CHANNELS 3 Zrotation Yrotation Xrotation
										End Site
										{
											OFFSET 0.000000 0.000000 0.000000
										}
									}
								}
								JOINT RThumb
								{
									OFFSET 0.000000 0.000000 0.000000
									CHANNELS 3 Zrotation Yrotation Xrotation
									End Site
									{
										OFFSET 0.000000 0.000000 0.000000
									}
								}
							}
						}
					}
				}
			}
		}
	}
}
}
MOTION
Frames: 13
Frame Time: 0.008333
-11.507224 16.654488 -0.172951 56.563924 86.579032 65.702669 3.931524 -6.471022 -4.739453 0.795196 -6.833210 -3.585791 -4.472410 -6.928375 0.943027 9.456963 -19.265147 -10.340482 -1.904578 -0.106390 -0.632245 0.000000 0.000000 0.000000 5.906330 0.716513 0.060251 -23.535999 -23.400806 -13.815626 -0.314920 -75.667640 -0.106976 10.531483 -2.659565 -0.303707 -0.084713 0.617294 -0.000000 0.000000 0.000000 0.000000 0.000000 0.000000 0.000000 11.039463 -18.862559 2.252423 50.319457 -23.301862 -27.129572 3.776785 26.225153 0.001596 -2.174391 1.071155 -0.022846 0.171725 -0.061214 -0.000000 0.000000 0.000000 0.000000 0.000000 0.000000 0.000000 
-11.332675 16.631996 -0.149591 48.585728 86.672119 57.576804 4.380940 -6.343743 -4.713221 0.857740 -6.740330 -3.595092 -4.601275 -6.831333 0.926876 9.578078 -19.117107 -10.341889 -2.039635 -0.118143 -0.632845 0.000000 0.000000 0.000000 5.662233 0.781194 0.088290 -25.037184 -22.477823 -13.352542 -0.371071 -76.086694 -0.105087 10.575551 -2.733238 -0.310895 -0.089241 0.607456 -0.000000 0.000000 0.000000 0.000000 0.000000 0.000000 0.000000 11.607826 -18.677878 2.201938 50.202401 -22.418728 -26.312635 3.783905 26.121706 0.001144 -2.511215 0.994044 -0.024248 0.170297 -0.057331 -0.000000 0.000000 0.000000 0.000000 0.000000 0.000000 0.000000 
-11.161822 16.608046 -0.127225 37.330207 86.760173 46.166902 4.971546 -6.189364 -4.625660 0.942408 -6.628996 -3.597054 -4.744232 -6.714160 0.900155 9.725720 -18.933051 -10.355621 -2.177316 -0.129848 -0.637949 0.000000 0.000000 0.000000 5.447796 0.858552 0.115288 -26.648309 -21.530263 -12.892606 -0.429562 -76.431259 -0.103432 10.657631 -2.784137 -0.317190 -0.094073 0.596696 -0.000000 0.000000 0.000000 0.000000 0.000000 0.000000 0.000000 12.196766 -18.441531 2.163973 50.159017 -21.446457 -25.559183 3.788962 25.987687 0.000769 -2.823924 0.928642 -0.025351 0.168384 -0.053934 -0.000000 0.000000 0.000000 0.000000 0.000000 0.000000 0.000000 
-10.995233 16.582200 -0.105404 20.852048 86.939081 29.526512 5.854650 -6.031496 -4.473069 1.080121 -6.534511 -3.592482 -4.907639 -6.610763 0.857830 9.901950 -18.718637 -10.380317 -2.317778 -0.141607 -0.646904 0.000000 0.000000 0.000000 5.268515 0.914485 0.143354 -28.362959 -20.562749 -12.444130 -0.491379 -76.689137 -0.102108 10.782507 -2.811573 -0.322496 -0.098920 0.585297 -0.000000 0.000000 0.000000 0.000000 0.000000 0.000000 0.000000 12.807369 -18.175660 2.137610 50.191079 -20.398268 -24.877159 3.792342 25.822622 0.000467 -3.115172 0.881751 -0.026355 0.166134 -0.051127 -0.000000 0.000000 0.000000 0.000000 0.000000 0.000000 0.000000 
-10.833286 16.554085 -0.083949 -4.328236 87.703779 4.137794 7.082653 -6.068221 -4.289678 1.299715 -6.662990 -3.587062 -5.082264 -6.730238 0.794696 10.098716 -18.480097 -10.407210 -2.464049 -0.153986 -0.656301 0.000000 0.000000 0.000000 5.121339 0.823642 0.194507 -30.159533 -19.621769 -12.006096 -0.557060 -76.826445 -0.101295 10.953879 -2.816655 -0.327084 -0.104277 0.574553 -0.000000 0.000000 0.000000 0.000000 0.000000 0.000000 0.000000 13.446825 -17.989876 2.104318 50.303519 -19.320492 -24.285917 3.790403 25.629149 0.000257 -3.385784 0.860673 -0.027863 0.163420 -0.048608 -0.000000 0.000000 0.000000 0.000000 0.000000 0.000000 0.000000 
-10.676199 16.523425 -0.062341 -37.633730 89.065188 -29.477026 7.505180 -6.430952 -4.124099 1.399975 -7.063406 -3.572460 -5.207793 -7.138456 0.726194 10.331110 -18.212544 -10.418683 -2.613224 -0.166601 -0.661902 0.000000 0.000000 0.000000 5.020503 0.526144 0.281093 -31.964463 -18.723329 -11.566363 -0.614347 -76.817202 -0.100854 11.169182 -2.802851 -0.331235 -0.111809 0.564609 -0.000000 0.000000 0.000000 0.000000 0.000000 0.000000 0.000000 14.140915 -17.928251 2.051234 50.527648 -18.238824 -23.800503 3.769094 25.421417 0.000167 -3.641770 0.872508 -0.030176 0.159033 -0.045677 -0.000000 0.000000 0.000000 0.000000 0.000000 0.000000 0.000000 
-10.523960 16.490179 -0.040537 -68.236813 89.722126 -60.371768 7.230428 -6.596948 -3.880152 1.339950 -7.208026 -3.539108 -5.323503 -7.294880 0.661165 10.614258 -17.909405 -10.432119 -2.756081 -0.177980 -0.670802 0.000000 0.000000 0.000000 4.939271 0.319014 0.344962 -33.752938 -17.798611 -11.142604 -0.662980 -76.692452 -0.100459 11.428440 -2.780576 -0.335533 -0.119092 0.552535 -0.000000 0.000000 0.000000 0.000000 0.000000 0.000000 0.000000 14.858578 -17.722067 2.029155 50.866500 -17.069028 -23.422191 3.739210 25.183688 0.000156 -3.887724 0.922366 -0.033783 0.153679 -0.043526 -0.000000 0.000000 0.000000 0.000000 0.000000 0.000000 0.000000 
-10.376487 16.454437 -0.018174 -88.807327 89.786830 -81.209625 7.160829 -6.585274 -3.560671 1.287284 -7.182583 -3.501179 -5.472636 -7.272520 0.581175 10.932621 -17.578396 -10.446445 -2.898336 -0.189100 -0.681037 0.000000 0.000000 0.000000 4.860191 0.165046 0.392916 -35.545648 -16.880238 -10.742514 -0.712896 -76.430049 -0.100202 11.725422 -2.757365 -0.340578 -0.124849 0.539091 -0.000000 0.000000 0.000000 0.000000 0.000000 0.000000 0.000000 15.592734 -17.407620 2.031513 51.292744 -15.838818 -23.145885 3.709952 24.905436 0.000192 -4.132989 1.014107 -0.039188 0.148314 -0.042395 -0.000000 0.000000 0.000000 0.000000 0.000000 0.000000 0.000000 
-10.233476 16.416566 0.004803 -102.048564 89.585510 -94.718880 7.274577 -6.534856 -3.204839 1.258711 -7.129751 -3.461673 -5.645035 -7.218742 0.485252 11.275878 -17.218350 -10.449560 -3.043074 -0.200490 -0.688677 0.000000 0.000000 0.000000 4.770221 -0.015783 0.443866 -37.325458 -16.019428 -10.354684 -0.763730 -75.993430 -0.100043 12.051964 -2.743488 -0.347248 -0.129535 0.525112 -0.000000 0.000000 0.000000 0.000000 0.000000 0.000000 0.000000 16.350988 -17.057972 2.041938 51.797894 -14.586692 -22.967922 3.677190 24.584936 0.000259 -4.389337 1.148574 -0.046795 0.142768 -0.041943 -0.000000 0.000000 0.000000 0.000000 0.000000 0.000000 0.000000 
-10.094676 16.377173 0.028791 -111.051273 89.248280 -103.996751 7.447543 -6.480116 -2.828273 1.235810 -7.076653 -3.420463 -5.834474 -7.163172 0.374654 11.641647 -16.821828 -10.431469 -3.192384 -0.212408 -0.690935 0.000000 0.000000 0.000000 4.666655 -0.249032 0.503572 -39.076521 -15.222185 -9.973599 -0.813187 -75.364862 -0.099808 12.397108 -2.748754 -0.356239 -0.133305 0.510589 -0.000000 0.000000 0.000000 0.000000 0.000000 0.000000 0.000000 17.144925 -16.683057 2.054886 52.372205 -13.335357 -22.866047 3.638214 24.224788 0.000330 -4.672278 1.320486 -0.056904 0.136929 -0.041951 -0.000000 0.000000 0.000000 0.000000 0.000000 0.000000 0.000000 
-9.959429 16.337020 0.053274 -117.431305 88.814375 -110.651157 7.643600 -6.422868 -2.448913 1.214185 -7.023181 -3.379381 -6.035839 -7.106738 0.255520 12.016550 -16.385689 -10.389182 -3.345509 -0.224800 -0.687018 0.000000 0.000000 0.000000 4.525690 -0.512970 0.574725 -40.788226 -14.520891 -9.585803 -0.861875 -74.511947 -0.099361 12.754570 -2.787219 -0.369246 -0.136233 0.495474 -0.000000 0.000000 0.000000 0.000000 0.000000 0.000000 0.000000 17.963405 -16.281154 2.067248 53.003545 -12.081238 -22.821231 3.592181 23.816755 0.000353 -4.993016 1.519300 -0.069614 0.130792 -0.042360 -0.000000 0.000000 0.000000 0.000000 0.000000 0.000000 0.000000 
-9.827282 16.297105 0.078471 -122.119372 88.329803 -115.609428 7.822929 -6.359698 -2.075643 1.186275 -6.963424 -3.339356 -6.247800 -7.043745 0.128935 12.395173 -15.898694 -10.315441 -3.504018 -0.237849 -0.674904 0.000000 0.000000 0.000000 4.344604 -0.805549 0.659037 -42.456293 -13.902521 -9.186697 -0.909648 -73.420703 -0.098515 13.116046 -2.867111 -0.387267 -0.138324 0.479439 -0.000000 0.000000 0.000000 0.000000 0.000000 0.000000 0.000000 18.810840 -15.838026 2.077192 53.675557 -10.835791 -22.793205 3.538619 23.366800 0.000271 -5.364015 1.727432 -0.084626 0.124392 -0.043053 -0.000000 0.000000 0.000000 0.000000 0.000000 0.000000 0.000000 
-9.697603 16.258466 0.103878 -125.552243 87.814873 -119.298409 7.984313 -6.285961 -1.722787 1.153400 -6.892973 -3.302210 -6.465700 -6.970004 0.001117 12.763768 -15.359745 -10.209647 -3.666330 -0.251404 -0.654404 0.000000 0.000000 0.000000 4.108383 -1.101476 0.757198 -44.081880 -13.377808 -8.766434 -0.958666 -72.063071 -0.097142 13.478515 -2.997764 -0.411604 -0.139597 0.462255 -0.000000 0.000000 0.000000 0.000000 0.000000 0.000000 0.000000 19.672227 -15.349315 2.082838 54.371914 -9.584389 -22.744158 3.478045 22.870532 0.000031 -5.790879 1.922781 -0.101241 0.117824 -0.044028 -0.000000 0.000000 0.000000 0.000000 0.000000 0.000000 0.000000 
